<?xml version="1.0" encoding="UTF-8"?>
<!DOCTYPE svg PUBLIC "-//W3C//DTD SVG 1.1//EN" "http://www.w3.org/Graphics/SVG/1.1/DTD/svg11.dtd">
<!-- Creator: CorelDRAW -->
<svg xmlns="http://www.w3.org/2000/svg" xml:space="preserve" width="210mm" height="297mm" version="1.1" style="shape-rendering:geometricPrecision; text-rendering:geometricPrecision; image-rendering:optimizeQuality; fill-rule:evenodd; clip-rule:evenodd"
viewBox="0 0 21000 29700"
 xmlns:xlink="http://www.w3.org/1999/xlink">
 <defs>
  <style type="text/css">
   <![CDATA[
    .fil5 {fill:#332C2B}
    .fil3 {fill:#FFF000}
    .fil0 {fill:#F08519}
    .fil1 {fill:#F1A526}
    .fil2 {fill:#F6CF23}
    .fil4 {fill:#00A2E9}
   ]]>
  </style>
 </defs>
 <g id="Layer_x0020_1">
  <metadata id="CorelCorpID_0Corel-Layer"/>
  <g id="Program_x0020_Keluarga_x0020_Harapan_x0020__x0028_PKH_x0029_.cdr">
   <path class="fil0" d="M1421 14196c251,0 455,-204 455,-455 0,-251 -204,-455 -455,-455 -251,0 -455,204 -455,455 0,251 204,455 455,455z"/>
   <path class="fil1" d="M3102 14785c337,0 613,-275 613,-613 0,-338 -276,-613 -613,-613 -338,0 -614,275 -614,613 0,338 276,613 614,613z"/>
   <path class="fil2" d="M5186 14332c533,0 967,-434 967,-967 0,-533 -434,-967 -967,-967 -532,0 -967,434 -967,967 0,533 435,967 967,967z"/>
   <path class="fil3" d="M7627 12935c760,0 1380,-620 1380,-1380 0,-760 -620,-1380 -1380,-1380 -760,0 -1380,620 -1380,1380 0,760 620,1380 1380,1380z"/>
   <path class="fil4" d="M0 14109c2521,1958 4649,1741 7239,384 230,361 499,790 728,1151 -5104,1672 -6755,-83 -7967,-1535z"/>
   <path class="fil4" d="M9492 17631c-643,-1108 -1285,-2217 -1928,-3325 6721,-3095 12990,-308 13436,335 -4379,-1327 -7813,-1474 -11129,-8 -32,14 -63,35 -66,69l-39 470 -274 2459z"/>
   <path class="fil4" d="M11340 19390l0 -458 134 0 79 313 79 -313 134 0 0 458 -83 0 0 -361 -87 361 -86 0 -87 -361 0 361 -83 0zm701 -105l0 0 84 15c-11,32 -28,57 -51,74 -24,16 -53,25 -88,25 -56,0 -97,-19 -124,-57 -21,-30 -32,-68 -32,-115 0,-55 14,-98 42,-129 28,-31 63,-47 105,-47 48,0 85,16 113,49 28,33 41,83 39,150l-211 0c0,26 7,46 20,61 13,15 29,22 49,22 13,0 24,-4 33,-11 9,-8 16,-20 21,-37zm4 -89l0 0c0,-25 -6,-45 -18,-58 -13,-13 -27,-20 -44,-20 -19,0 -34,7 -46,21 -12,14 -18,33 -18,57l126 0zm235 194l0 0 -85 0 0 -332 79 0 0 47c13,-22 25,-37 36,-44 11,-7 23,-10 37,-10 19,0 38,6 56,16l-27 77c-14,-9 -27,-14 -39,-14 -12,0 -23,3 -31,10 -8,7 -14,19 -19,37 -5,17 -7,54 -7,111l0 102zm222 -230l0 0 -76 -14c8,-32 23,-56 44,-72 21,-15 53,-23 94,-23 38,0 66,5 85,14 18,9 31,21 39,35 7,14 11,41 11,79l-1 102c0,29 1,51 4,65 3,14 8,29 15,44l-84 0c-2,-5 -5,-14 -8,-25 -1,-5 -2,-9 -3,-10 -14,14 -30,25 -46,33 -17,7 -34,11 -53,11 -33,0 -59,-10 -78,-28 -19,-19 -28,-42 -28,-70 0,-19 4,-36 13,-51 9,-14 21,-26 36,-33 16,-8 38,-15 68,-21 39,-8 67,-15 82,-21l0 -9c0,-17 -4,-30 -12,-37 -8,-7 -24,-11 -46,-11 -15,0 -27,3 -35,10 -9,6 -16,17 -21,32zm114 72l0 0c-11,3 -28,8 -52,13 -23,5 -39,10 -46,15 -11,9 -16,19 -16,31 0,13 4,23 13,32 9,9 20,14 34,14 15,0 29,-6 43,-16 11,-8 17,-18 21,-29 2,-8 3,-22 3,-43l0 -17zm167 -219l0 0 0 -81 84 0 0 81 -84 0zm0 377l0 0 0 -332 84 0 0 332 -84 0zm255 -458l0 0 0 170c27,-34 60,-51 98,-51 20,0 38,4 54,11 15,8 27,17 35,29 8,12 14,25 17,39 3,14 4,36 4,66l0 194 -85 0 0 -175c0,-35 -1,-57 -5,-66 -3,-10 -9,-17 -17,-22 -8,-6 -18,-9 -31,-9 -14,0 -27,4 -38,11 -11,7 -19,18 -24,32 -6,14 -8,35 -8,63l0 166 -85 0 0 -458 85 0zm467 458l0 0 0 -458 90 0 0 203 180 -203 120 0 -167 178 176 280 -116 0 -121 -215 -72 77 0 138 -90 0zm630 -105l0 0 84 15c-10,32 -28,57 -51,74 -23,16 -53,25 -88,25 -56,0 -97,-19 -124,-57 -21,-30 -31,-68 -31,-115 0,-55 14,-98 41,-129 28,-31 63,-47 106,-47 47,0 85,16 112,49 28,33 41,83 40,150l-212 0c0,26 7,46 20,61 13,15 30,22 49,22 13,0 24,-4 33,-11 9,-8 16,-20 21,-37zm5 -89l0 0c-1,-25 -7,-45 -19,-58 -12,-13 -27,-20 -44,-20 -19,0 -34,7 -46,21 -12,14 -18,33 -18,57l127 0zm153 194l0 0 0 -458 85 0 0 458 -85 0zm384 0l0 0 0 -49c-12,17 -28,32 -47,42 -19,11 -39,16 -60,16 -21,0 -41,-5 -58,-15 -17,-10 -29,-24 -37,-41 -8,-18 -12,-43 -12,-74l0 -211 85 0 0 153c0,47 2,76 5,86 3,11 9,19 17,25 8,6 19,10 31,10 15,0 28,-5 39,-13 12,-8 20,-18 24,-31 4,-12 6,-42 6,-90l0 -140 85 0 0 332 -78 0zm228 -230l0 0 -77 -14c9,-32 24,-56 45,-72 21,-15 53,-23 94,-23 38,0 66,5 85,14 18,9 31,21 39,35 7,14 11,41 11,79l-1 102c0,29 1,51 4,65 3,14 8,29 15,44l-84 0c-2,-5 -5,-14 -8,-25 -1,-5 -2,-9 -3,-10 -15,14 -30,25 -46,33 -17,7 -34,11 -53,11 -33,0 -59,-10 -78,-28 -19,-19 -28,-42 -28,-70 0,-19 4,-36 13,-51 8,-14 20,-26 36,-33 16,-8 38,-15 67,-21 40,-8 67,-15 83,-21l0 -9c0,-17 -4,-30 -12,-37 -8,-7 -24,-11 -46,-11 -15,0 -27,3 -35,10 -9,6 -16,17 -21,32zm114 72l0 0c-11,3 -28,8 -52,13 -23,5 -39,10 -46,15 -11,9 -17,19 -17,31 0,13 5,23 14,32 9,9 20,14 33,14 16,0 30,-6 44,-16 10,-8 17,-18 20,-29 3,-8 4,-22 4,-43l0 -17zm248 158l0 0 -85 0 0 -332 78 0 0 47c14,-22 26,-37 37,-44 11,-7 23,-10 37,-10 19,0 38,6 55,16l-26 77c-14,-9 -27,-14 -40,-14 -12,0 -22,3 -30,10 -8,7 -15,19 -19,37 -5,17 -7,54 -7,111l0 102zm151 22l0 0 97 12c2,12 5,20 11,24 8,7 21,10 38,10 22,0 39,-4 50,-11 7,-4 13,-12 17,-22 2,-7 4,-21 4,-40l0 -49c-25,36 -57,54 -96,54 -43,0 -77,-18 -102,-56 -20,-30 -30,-67 -30,-111 0,-56 13,-99 39,-128 26,-29 58,-44 96,-44 40,0 73,18 98,54l0 -47 79 0 0 298c0,39 -3,69 -9,88 -6,19 -15,35 -26,46 -11,11 -26,19 -45,26 -19,6 -43,9 -72,9 -54,0 -92,-10 -115,-29 -23,-20 -34,-44 -34,-74 0,-3 0,-6 0,-10zm76 -194l0 0c0,35 7,60 20,77 13,16 29,24 48,24 21,0 38,-8 53,-25 14,-17 21,-41 21,-74 0,-35 -7,-60 -20,-77 -14,-16 -31,-25 -52,-25 -20,0 -37,8 -50,25 -13,16 -20,41 -20,75zm372 -58l0 0 -76 -14c8,-32 23,-56 44,-72 22,-15 53,-23 95,-23 37,0 66,5 84,14 19,9 32,21 39,35 8,14 11,41 11,79l-1 102c0,29 2,51 4,65 3,14 8,29 15,44l-84 0c-2,-5 -5,-14 -8,-25 -1,-5 -2,-9 -3,-10 -14,14 -30,25 -46,33 -17,7 -34,11 -53,11 -33,0 -59,-10 -77,-28 -19,-19 -29,-42 -29,-70 0,-19 4,-36 13,-51 9,-14 21,-26 36,-33 16,-8 38,-15 68,-21 39,-8 67,-15 82,-21l0 -9c0,-17 -4,-30 -12,-37 -8,-7 -23,-11 -46,-11 -15,0 -27,3 -35,10 -9,6 -15,17 -21,32zm114 72l0 0c-11,3 -28,8 -52,13 -23,5 -38,10 -46,15 -11,9 -16,19 -16,31 0,13 4,23 13,32 9,9 20,14 34,14 15,0 30,-6 44,-16 10,-8 17,-18 20,-29 2,-8 3,-22 3,-43l0 -17zm316 10l0 0 87 -9c5,30 16,52 32,66 15,15 37,22 64,22 29,0 50,-7 65,-19 14,-13 22,-28 22,-44 0,-11 -3,-21 -9,-28 -7,-8 -17,-14 -32,-20 -11,-4 -35,-10 -72,-20 -47,-12 -81,-28 -100,-46 -27,-25 -41,-56 -41,-92 0,-24 7,-46 19,-66 13,-20 32,-36 56,-47 24,-10 52,-16 86,-16 56,0 97,13 125,39 28,25 43,59 44,102l-89 3c-4,-24 -12,-41 -25,-51 -12,-10 -31,-16 -56,-16 -26,0 -46,6 -60,17 -10,7 -14,17 -14,29 0,11 4,20 13,27 11,10 38,21 82,31 43,11 75,22 96,33 21,12 37,27 49,47 11,20 17,44 17,73 0,26 -7,51 -21,74 -14,23 -34,40 -60,51 -25,11 -57,17 -96,17 -56,0 -99,-14 -129,-40 -30,-27 -47,-66 -53,-117zm620 43l0 0 85 15c-11,32 -28,57 -52,74 -23,16 -53,25 -88,25 -55,0 -97,-19 -123,-57 -21,-30 -32,-68 -32,-115 0,-55 14,-98 42,-129 27,-31 62,-47 105,-47 47,0 85,16 112,49 28,33 41,83 40,150l-212 0c1,26 7,46 21,61 12,15 29,22 48,22 13,0 25,-4 33,-11 10,-8 16,-20 21,-37zm5 -89l0 0c-1,-25 -7,-45 -19,-58 -12,-13 -27,-20 -44,-20 -18,0 -34,7 -46,21 -12,14 -18,33 -17,57l126 0zm151 -183l0 0 0 -81 85 0 0 81 -85 0zm85 45l0 0 -85 0 0 317c0,27 -1,43 -2,49 -2,5 -6,10 -11,14 -6,4 -13,6 -22,6 -3,0 -6,-1 -10,-1 -3,-1 -7,-1 -11,-2l-15 75c12,3 22,5 32,7 10,1 19,2 27,2 24,0 43,-5 58,-15 15,-9 26,-23 31,-41 5,-17 8,-47 8,-89l0 -322zm152 102l0 0 -77 -14c9,-32 24,-56 45,-72 21,-15 52,-23 94,-23 38,0 66,5 85,14 18,9 31,21 39,35 7,14 11,41 11,79l-1 102c0,29 1,51 4,65 2,14 7,29 15,44l-84 0c-2,-5 -5,-14 -8,-25 -2,-5 -3,-9 -3,-10 -15,14 -30,25 -47,33 -16,7 -34,11 -52,11 -33,0 -59,-10 -78,-28 -19,-19 -28,-42 -28,-70 0,-19 4,-36 13,-51 8,-14 20,-26 36,-33 15,-8 38,-15 67,-21 40,-8 67,-15 83,-21l0 -9c0,-17 -4,-30 -13,-37 -8,-7 -23,-11 -45,-11 -15,0 -27,3 -36,10 -8,6 -15,17 -20,32zm114 72l0 0c-11,3 -28,8 -52,13 -24,5 -39,10 -46,15 -11,9 -17,19 -17,31 0,13 5,23 13,32 9,9 21,14 34,14 16,0 30,-6 44,-16 10,-8 17,-18 20,-29 2,-8 4,-22 4,-43l0 -17zm250 -300l0 0 0 170c27,-34 60,-51 98,-51 20,0 38,4 54,11 15,8 27,17 35,29 8,12 14,25 17,39 3,14 4,36 4,66l0 194 -85 0 0 -175c0,-35 -1,-57 -4,-66 -4,-10 -10,-17 -18,-22 -8,-6 -18,-9 -31,-9 -14,0 -27,4 -38,11 -11,7 -19,18 -24,32 -6,14 -8,35 -8,63l0 166 -85 0 0 -458 85 0zm440 126l0 0 0 70 -58 0 0 134c0,28 1,44 2,48 1,5 3,8 7,11 4,3 9,5 15,5 8,0 19,-3 34,-9l7 69c-20,8 -42,13 -67,13 -15,0 -29,-3 -41,-8 -12,-6 -21,-13 -27,-21 -6,-8 -10,-20 -12,-34 -2,-11 -3,-31 -3,-63l0 -145 -38 0 0 -70 38 0 0 -66 85 -52 0 118 58 0zm245 227l0 0 84 15c-10,32 -28,57 -51,74 -23,16 -53,25 -88,25 -56,0 -97,-19 -124,-57 -21,-30 -31,-68 -31,-115 0,-55 14,-98 41,-129 28,-31 63,-47 106,-47 47,0 85,16 112,49 28,33 41,83 40,150l-212 0c0,26 7,46 20,61 13,15 30,22 49,22 13,0 24,-4 33,-11 9,-8 16,-20 21,-37zm5 -89l0 0c-1,-25 -7,-45 -19,-58 -12,-13 -27,-20 -44,-20 -19,0 -34,7 -46,21 -12,14 -18,33 -18,57l127 0zm234 194l0 0 -85 0 0 -332 79 0 0 47c13,-22 25,-37 36,-44 11,-7 23,-10 37,-10 19,0 38,6 56,16l-26 77c-15,-9 -28,-14 -40,-14 -12,0 -22,3 -30,10 -9,7 -15,19 -20,37 -5,17 -7,54 -7,111l0 102zm222 -230l0 0 -76 -14c9,-32 23,-56 45,-72 21,-15 52,-23 94,-23 37,0 66,5 84,14 19,9 32,21 39,35 8,14 12,41 12,79l-2 102c0,29 2,51 4,65 3,14 8,29 15,44l-84 0c-2,-5 -5,-14 -8,-25 -1,-5 -2,-9 -3,-10 -14,14 -30,25 -46,33 -16,7 -34,11 -53,11 -32,0 -58,-10 -77,-28 -19,-19 -29,-42 -29,-70 0,-19 5,-36 13,-51 9,-14 21,-26 37,-33 15,-8 38,-15 67,-21 39,-8 67,-15 82,-21l0 -9c0,-17 -4,-30 -12,-37 -8,-7 -23,-11 -46,-11 -15,0 -27,3 -35,10 -9,6 -15,17 -21,32zm114 72l0 0c-11,3 -28,8 -51,13 -24,5 -39,10 -47,15 -11,9 -16,19 -16,31 0,13 4,23 13,32 9,9 20,14 34,14 15,0 30,-6 44,-16 10,-8 17,-18 20,-29 2,-8 3,-22 3,-43l0 -17z"/>
   <path class="fil5" d="M11351 15987l0 -990 321 0c121,0 200,5 237,15 57,15 104,47 143,97 38,50 57,114 57,193 0,61 -11,112 -33,153 -22,42 -50,74 -84,98 -34,24 -68,39 -103,47 -48,9 -117,14 -207,14l-130 0 0 373 -201 0zm201 -822l0 0 0 282 109 0c78,0 131,-6 157,-16 27,-10 47,-26 62,-49 15,-22 23,-47 23,-77 0,-36 -11,-66 -32,-89 -21,-24 -47,-39 -80,-45 -23,-4 -71,-6 -143,-6l-96 0zm824 822l0 0 0 -990 421 0c106,0 183,9 231,27 48,18 86,49 115,95 29,45 43,97 43,156 0,74 -21,136 -65,184 -43,48 -108,79 -195,91 43,26 79,53 106,83 29,31 66,84 114,161l121 193 -239 0 -144 -216c-51,-76 -86,-125 -106,-145 -18,-20 -38,-34 -60,-41 -21,-7 -55,-11 -101,-11l-40 0 0 413 -201 0zm201 -571l0 0 148 0c95,0 155,-4 179,-12 24,-8 43,-22 56,-42 14,-20 20,-45 20,-74 0,-34 -9,-60 -26,-81 -18,-21 -43,-34 -76,-39 -16,-2 -65,-3 -145,-3l-156 0 0 251zm859 82l0 0c0,-101 15,-185 45,-254 22,-51 53,-96 92,-136 39,-40 82,-70 128,-89 62,-27 133,-40 214,-40 146,0 262,46 350,136 88,91 132,217 132,379 0,160 -44,285 -131,376 -87,90 -203,135 -349,135 -147,0 -264,-45 -351,-135 -87,-90 -130,-214 -130,-372zm206 -6l0 0c0,112 26,197 78,255 51,58 117,87 197,87 80,0 145,-29 197,-86 51,-58 77,-144 77,-259 0,-114 -25,-199 -75,-254 -50,-56 -116,-84 -199,-84 -82,0 -149,28 -200,85 -50,56 -75,142 -75,256zm1474 132l0 0 0 -168 430 0 0 395c-42,41 -103,77 -182,108 -80,31 -160,46 -242,46 -103,0 -193,-21 -270,-65 -77,-43 -135,-106 -173,-187 -39,-81 -58,-169 -58,-264 0,-103 21,-195 64,-275 44,-81 107,-142 190,-185 64,-33 142,-50 237,-50 123,0 219,26 288,78 69,52 113,123 133,214l-199 37c-14,-48 -40,-87 -79,-115 -38,-28 -86,-42 -143,-42 -87,0 -157,27 -208,83 -52,56 -77,138 -77,247 0,118 26,206 78,265 52,58 120,88 205,88 41,0 83,-8 125,-25 43,-16 79,-36 109,-60l0 -125 -228 0zm717 363l0 0 0 -990 421 0c106,0 183,9 231,27 48,18 86,49 115,95 29,45 43,97 43,156 0,74 -21,136 -65,184 -43,48 -108,79 -195,91 43,26 79,53 106,83 29,31 66,84 114,161l121 193 -239 0 -144 -216c-51,-76 -86,-125 -106,-145 -18,-20 -38,-34 -60,-41 -21,-7 -55,-11 -101,-11l-40 0 0 413 -201 0zm201 -571l0 0 148 0c95,0 155,-4 179,-12 24,-8 43,-22 56,-42 14,-20 20,-45 20,-74 0,-34 -9,-60 -26,-81 -18,-21 -43,-34 -76,-39 -16,-2 -64,-3 -145,-3l-156 0 0 251zm1792 571l0 0 -216 0 -85 -225 -398 0 -82 225 -212 0 385 -990 211 0 397 990zm-366 -392l0 0 -138 -367 -134 367 272 0zm572 392l0 0 0 -990 301 0 177 676 175 -676 301 0 0 990 -185 0 -1 -779 -195 779 -192 0 -195 -779 0 779 -186 0zm-6678 1236l0 0 0 -990 201 0 0 439 404 -439 268 0 -373 386 393 604 -259 0 -272 -465 -161 166 0 299 -201 0zm996 0l0 0 0 -990 733 0 0 168 -533 0 0 219 495 0 0 168 -495 0 0 268 552 0 0 167 -752 0zm928 0l0 0 0 -982 200 0 0 815 497 0 0 167 -697 0zm839 -990l0 0 200 0 0 537c0,85 3,140 8,165 8,41 28,73 60,98 32,25 76,37 131,37 56,0 99,-12 127,-35 29,-23 46,-52 52,-86 5,-33 8,-89 8,-168l0 -548 201 0 0 521c0,119 -6,203 -16,252 -11,49 -31,91 -60,124 -29,34 -68,61 -116,81 -49,20 -112,30 -190,30 -94,0 -166,-11 -214,-32 -49,-22 -87,-51 -116,-86 -28,-35 -46,-71 -55,-110 -14,-56 -20,-140 -20,-251l0 -529zm1890 990l0 0 -215 0 -86 -225 -397 0 -82 225 -212 0 384 -990 212 0 396 990zm-366 -392l0 0 -138 -367 -133 367 271 0zm473 392l0 0 0 -990 421 0c106,0 183,9 231,27 48,18 86,49 115,95 29,45 44,97 44,156 0,74 -22,135 -66,184 -43,48 -108,79 -195,91 43,25 79,53 107,83 28,30 65,84 113,161l121 193 -239 0 -144 -216c-51,-77 -86,-125 -105,-145 -19,-20 -39,-34 -61,-41 -21,-7 -55,-11 -101,-11l-40 0 0 413 -201 0zm201 -571l0 0 148 0c96,0 155,-4 179,-12 24,-8 43,-22 56,-42 14,-20 20,-45 20,-74 0,-34 -9,-61 -26,-81 -18,-21 -43,-34 -75,-39 -17,-2 -65,-3 -146,-3l-156 0 0 251zm1258 208l0 0 0 -168 430 0 0 395c-41,41 -102,77 -182,108 -79,31 -159,46 -241,46 -103,0 -193,-21 -270,-65 -77,-44 -135,-106 -174,-187 -38,-81 -58,-169 -58,-264 0,-103 22,-195 65,-276 43,-80 106,-142 190,-184 63,-33 142,-50 237,-50 122,0 219,26 288,78 69,52 113,123 133,214l-199 37c-14,-48 -40,-87 -79,-115 -38,-28 -86,-42 -144,-42 -87,0 -156,27 -208,83 -51,55 -77,138 -77,247 0,117 26,206 78,265 53,58 121,88 205,88 42,0 84,-9 126,-25 42,-16 78,-36 108,-60l0 -125 -228 0zm1507 363l0 0 -216 0 -85 -225 -397 0 -83 225 -212 0 385 -990 212 0 396 990zm-366 -392l0 0 -138 -367 -133 367 271 0zm-7363 1628l0 0 0 -990 201 0 0 390 390 0 0 -390 200 0 0 990 -200 0 0 -433 -390 0 0 433 -201 0zm2062 0l0 0 -216 0 -86 -225 -397 0 -82 225 -212 0 384 -990 212 0 397 990zm-367 -393l0 0 -137 -366 -134 366 271 0zm644 393l0 0 0 -990 421 0c106,0 183,9 231,27 48,18 86,49 115,95 29,45 43,97 43,156 0,74 -21,135 -65,184 -43,48 -108,79 -195,91 43,25 78,53 106,83 28,30 66,84 114,161l120 193 -239 0 -143 -216c-51,-77 -87,-125 -106,-145 -19,-20 -39,-34 -60,-41 -21,-8 -55,-11 -101,-11l-41 0 0 413 -200 0zm200 -571l0 0 148 0c96,0 156,-4 180,-12 24,-8 43,-22 56,-42 14,-20 20,-45 20,-75 0,-33 -9,-60 -26,-80 -18,-21 -43,-34 -76,-39 -16,-2 -65,-4 -146,-4l-156 0 0 252zm1861 571l0 0 -216 0 -85 -225 -397 0 -83 225 -212 0 385 -990 212 0 396 990zm-366 -393l0 0 -138 -366 -134 366 272 0zm644 393l0 0 0 -990 320 0c122,0 201,5 238,15 56,15 104,47 142,97 38,50 57,114 57,193 0,61 -11,112 -33,153 -22,41 -50,74 -83,98 -34,23 -69,39 -104,46 -48,10 -117,15 -207,15l-130 0 0 373 -200 0zm200 -823l0 0 0 282 109 0c79,0 131,-5 158,-15 26,-11 47,-27 62,-49 15,-22 22,-48 22,-77 0,-36 -10,-66 -31,-90 -21,-23 -48,-38 -80,-44 -24,-4 -72,-7 -144,-7l-96 0zm1682 823l0 0 -216 0 -85 -225 -398 0 -82 225 -212 0 385 -990 211 0 397 990zm-366 -393l0 0 -138 -366 -134 366 272 0zm643 393l0 0 0 -990 194 0 408 664 0 -664 185 0 0 990 -200 0 -401 -651 0 651 -186 0z"/>
  </g>
 </g>
</svg>
